<mxfile host="Electron" agent="Mozilla/5.0 (Windows NT 10.0; Win64; x64) AppleWebKit/537.36 (KHTML, like Gecko) draw.io/24.7.5 Chrome/126.0.6478.183 Electron/31.3.0 Safari/537.36" version="24.7.5">
  <diagram name="Page-1" id="2a216829-ef6e-dabb-86c1-c78162f3ba2b">
    <mxGraphModel dx="1199" dy="1206" grid="1" gridSize="10" guides="1" tooltips="1" connect="1" arrows="1" fold="1" page="1" pageScale="1" pageWidth="850" pageHeight="1100" background="none" math="0" shadow="0">
      <root>
        <mxCell id="0" />
        <mxCell id="1" parent="0" />
        <mxCell id="m1pKZ-GwWlCqEN-z7sCc-58" value="&lt;div style=&quot;&quot;&gt;&lt;font style=&quot;&quot;&gt;&lt;br&gt;&lt;font style=&quot;font-size: 24px;&quot;&gt;Веб-сайт&lt;/font&gt;&lt;/font&gt;&lt;/div&gt;" style="swimlane;html=1;startSize=20;fontStyle=0;collapsible=0;horizontal=1;swimlaneLine=0;fillColor=none;whiteSpace=wrap;align=center;" vertex="1" parent="1">
          <mxGeometry x="1590" y="270" width="1680" height="50" as="geometry" />
        </mxCell>
        <mxCell id="m1pKZ-GwWlCqEN-z7sCc-59" value="Сервер банка" style="swimlane;startSize=20;horizontal=0;html=1;whiteSpace=wrap;" vertex="1" parent="1">
          <mxGeometry x="1590" y="360" width="1680" height="310" as="geometry" />
        </mxCell>
        <mxCell id="m1pKZ-GwWlCqEN-z7sCc-60" value="" style="points=[[0.145,0.145,0],[0.5,0,0],[0.855,0.145,0],[1,0.5,0],[0.855,0.855,0],[0.5,1,0],[0.145,0.855,0],[0,0.5,0]];shape=mxgraph.bpmn.event;html=1;verticalLabelPosition=bottom;labelBackgroundColor=#ffffff;verticalAlign=top;align=center;perimeter=ellipsePerimeter;outlineConnect=0;aspect=fixed;outline=standard;symbol=message;" vertex="1" parent="m1pKZ-GwWlCqEN-z7sCc-59">
          <mxGeometry x="50" y="40" width="50" height="50" as="geometry" />
        </mxCell>
        <mxCell id="m1pKZ-GwWlCqEN-z7sCc-61" value="Отправить запрос на оценку в Агентство" style="points=[[0.25,0,0],[0.5,0,0],[0.75,0,0],[1,0.25,0],[1,0.5,0],[1,0.75,0],[0.75,1,0],[0.5,1,0],[0.25,1,0],[0,0.75,0],[0,0.5,0],[0,0.25,0]];shape=mxgraph.bpmn.task;whiteSpace=wrap;rectStyle=rounded;size=10;html=1;container=1;expand=0;collapsible=0;taskMarker=abstract;" vertex="1" parent="m1pKZ-GwWlCqEN-z7sCc-59">
          <mxGeometry x="160" y="25" width="120" height="80" as="geometry" />
        </mxCell>
        <mxCell id="m1pKZ-GwWlCqEN-z7sCc-62" style="edgeStyle=orthogonalEdgeStyle;rounded=0;orthogonalLoop=1;jettySize=auto;html=1;entryX=0;entryY=0.5;entryDx=0;entryDy=0;entryPerimeter=0;" edge="1" parent="m1pKZ-GwWlCqEN-z7sCc-59" source="m1pKZ-GwWlCqEN-z7sCc-60" target="m1pKZ-GwWlCqEN-z7sCc-61">
          <mxGeometry relative="1" as="geometry" />
        </mxCell>
        <mxCell id="m1pKZ-GwWlCqEN-z7sCc-63" value="Получен запрос на проверку" style="text;html=1;align=center;verticalAlign=middle;whiteSpace=wrap;rounded=0;" vertex="1" parent="m1pKZ-GwWlCqEN-z7sCc-59">
          <mxGeometry x="35" y="90" width="80" height="40" as="geometry" />
        </mxCell>
        <mxCell id="m1pKZ-GwWlCqEN-z7sCc-65" value="" style="points=[[0.145,0.145,0],[0.5,0,0],[0.855,0.145,0],[1,0.5,0],[0.855,0.855,0],[0.5,1,0],[0.145,0.855,0],[0,0.5,0]];shape=mxgraph.bpmn.event;html=1;verticalLabelPosition=bottom;labelBackgroundColor=#ffffff;verticalAlign=top;align=center;perimeter=ellipsePerimeter;outlineConnect=0;aspect=fixed;outline=catching;symbol=message;" vertex="1" parent="m1pKZ-GwWlCqEN-z7sCc-59">
          <mxGeometry x="505" y="40" width="50" height="50" as="geometry" />
        </mxCell>
        <mxCell id="m1pKZ-GwWlCqEN-z7sCc-66" style="edgeStyle=orthogonalEdgeStyle;rounded=0;orthogonalLoop=1;jettySize=auto;html=1;entryX=0;entryY=0.5;entryDx=0;entryDy=0;entryPerimeter=0;" edge="1" parent="m1pKZ-GwWlCqEN-z7sCc-59" source="m1pKZ-GwWlCqEN-z7sCc-61" target="m1pKZ-GwWlCqEN-z7sCc-65">
          <mxGeometry relative="1" as="geometry" />
        </mxCell>
        <mxCell id="m1pKZ-GwWlCqEN-z7sCc-67" value="Получен ответ" style="text;html=1;align=center;verticalAlign=middle;whiteSpace=wrap;rounded=0;" vertex="1" parent="m1pKZ-GwWlCqEN-z7sCc-59">
          <mxGeometry x="480" width="100" height="40" as="geometry" />
        </mxCell>
        <mxCell id="m1pKZ-GwWlCqEN-z7sCc-70" value="" style="points=[[0.145,0.145,0],[0.5,0,0],[0.855,0.145,0],[1,0.5,0],[0.855,0.855,0],[0.5,1,0],[0.145,0.855,0],[0,0.5,0]];shape=mxgraph.bpmn.event;html=1;verticalLabelPosition=bottom;labelBackgroundColor=#ffffff;verticalAlign=top;align=center;perimeter=ellipsePerimeter;outlineConnect=0;aspect=fixed;outline=end;symbol=terminate2;" vertex="1" parent="m1pKZ-GwWlCqEN-z7sCc-59">
          <mxGeometry x="1240" y="40" width="50" height="50" as="geometry" />
        </mxCell>
        <mxCell id="m1pKZ-GwWlCqEN-z7sCc-99" value="" style="points=[[0.25,0.25,0],[0.5,0,0],[0.75,0.25,0],[1,0.5,0],[0.75,0.75,0],[0.5,1,0],[0.25,0.75,0],[0,0.5,0]];shape=mxgraph.bpmn.gateway2;html=1;verticalLabelPosition=bottom;labelBackgroundColor=#ffffff;verticalAlign=top;align=center;perimeter=rhombusPerimeter;outlineConnect=0;outline=none;symbol=none;gwType=exclusive;" vertex="1" parent="m1pKZ-GwWlCqEN-z7sCc-59">
          <mxGeometry x="620" y="40" width="50" height="50" as="geometry" />
        </mxCell>
        <mxCell id="m1pKZ-GwWlCqEN-z7sCc-100" value="Результат?" style="text;html=1;align=center;verticalAlign=middle;whiteSpace=wrap;rounded=0;" vertex="1" parent="m1pKZ-GwWlCqEN-z7sCc-59">
          <mxGeometry x="605" width="80" height="40" as="geometry" />
        </mxCell>
        <mxCell id="m1pKZ-GwWlCqEN-z7sCc-142" style="edgeStyle=orthogonalEdgeStyle;rounded=0;orthogonalLoop=1;jettySize=auto;html=1;" edge="1" parent="m1pKZ-GwWlCqEN-z7sCc-59" source="m1pKZ-GwWlCqEN-z7sCc-103" target="m1pKZ-GwWlCqEN-z7sCc-70">
          <mxGeometry relative="1" as="geometry" />
        </mxCell>
        <mxCell id="m1pKZ-GwWlCqEN-z7sCc-103" value="" style="points=[[0.25,0.25,0],[0.5,0,0],[0.75,0.25,0],[1,0.5,0],[0.75,0.75,0],[0.5,1,0],[0.25,0.75,0],[0,0.5,0]];shape=mxgraph.bpmn.gateway2;html=1;verticalLabelPosition=bottom;labelBackgroundColor=#ffffff;verticalAlign=top;align=center;perimeter=rhombusPerimeter;outlineConnect=0;outline=none;symbol=none;gwType=exclusive;" vertex="1" parent="m1pKZ-GwWlCqEN-z7sCc-59">
          <mxGeometry x="1110" y="40" width="50" height="50" as="geometry" />
        </mxCell>
        <mxCell id="m1pKZ-GwWlCqEN-z7sCc-104" value="Отправить информацию о задержке" style="points=[[0.25,0,0],[0.5,0,0],[0.75,0,0],[1,0.25,0],[1,0.5,0],[1,0.75,0],[0.75,1,0],[0.5,1,0],[0.25,1,0],[0,0.75,0],[0,0.5,0],[0,0.25,0]];shape=mxgraph.bpmn.task;whiteSpace=wrap;rectStyle=rounded;size=10;html=1;container=1;expand=0;collapsible=0;taskMarker=abstract;" vertex="1" parent="m1pKZ-GwWlCqEN-z7sCc-59">
          <mxGeometry x="780" y="25" width="120" height="80" as="geometry" />
        </mxCell>
        <mxCell id="m1pKZ-GwWlCqEN-z7sCc-119" value="" style="dashed=1;dashPattern=8 4;endArrow=blockThin;endFill=0;startArrow=oval;startFill=0;endSize=6;startSize=4;html=1;rounded=0;exitX=0.5;exitY=0;exitDx=0;exitDy=0;exitPerimeter=0;" edge="1" parent="m1pKZ-GwWlCqEN-z7sCc-59" source="m1pKZ-GwWlCqEN-z7sCc-104">
          <mxGeometry width="160" relative="1" as="geometry">
            <mxPoint x="790" y="20" as="sourcePoint" />
            <mxPoint x="840" y="-40" as="targetPoint" />
          </mxGeometry>
        </mxCell>
        <mxCell id="m1pKZ-GwWlCqEN-z7sCc-133" style="edgeStyle=orthogonalEdgeStyle;rounded=0;orthogonalLoop=1;jettySize=auto;html=1;entryX=0;entryY=0.5;entryDx=0;entryDy=0;entryPerimeter=0;" edge="1" parent="m1pKZ-GwWlCqEN-z7sCc-59" source="m1pKZ-GwWlCqEN-z7sCc-65" target="m1pKZ-GwWlCqEN-z7sCc-99">
          <mxGeometry relative="1" as="geometry" />
        </mxCell>
        <mxCell id="m1pKZ-GwWlCqEN-z7sCc-134" style="edgeStyle=orthogonalEdgeStyle;rounded=0;orthogonalLoop=1;jettySize=auto;html=1;entryX=0;entryY=0.5;entryDx=0;entryDy=0;entryPerimeter=0;" edge="1" parent="m1pKZ-GwWlCqEN-z7sCc-59" source="m1pKZ-GwWlCqEN-z7sCc-99" target="m1pKZ-GwWlCqEN-z7sCc-104">
          <mxGeometry relative="1" as="geometry" />
        </mxCell>
        <mxCell id="m1pKZ-GwWlCqEN-z7sCc-135" value="Требуется время на расчёт" style="text;html=1;align=center;verticalAlign=middle;whiteSpace=wrap;rounded=0;" vertex="1" parent="m1pKZ-GwWlCqEN-z7sCc-59">
          <mxGeometry x="670" y="30" width="100" height="40" as="geometry" />
        </mxCell>
        <mxCell id="m1pKZ-GwWlCqEN-z7sCc-140" style="edgeStyle=orthogonalEdgeStyle;rounded=0;orthogonalLoop=1;jettySize=auto;html=1;" edge="1" parent="m1pKZ-GwWlCqEN-z7sCc-59" source="m1pKZ-GwWlCqEN-z7sCc-136" target="m1pKZ-GwWlCqEN-z7sCc-103">
          <mxGeometry relative="1" as="geometry" />
        </mxCell>
        <mxCell id="m1pKZ-GwWlCqEN-z7sCc-136" value="Отправить результат расчёта" style="points=[[0.25,0,0],[0.5,0,0],[0.75,0,0],[1,0.25,0],[1,0.5,0],[1,0.75,0],[0.75,1,0],[0.5,1,0],[0.25,1,0],[0,0.75,0],[0,0.5,0],[0,0.25,0]];shape=mxgraph.bpmn.task;whiteSpace=wrap;rectStyle=rounded;size=10;html=1;container=1;expand=0;collapsible=0;taskMarker=abstract;" vertex="1" parent="m1pKZ-GwWlCqEN-z7sCc-59">
          <mxGeometry x="920" y="120" width="120" height="80" as="geometry" />
        </mxCell>
        <mxCell id="m1pKZ-GwWlCqEN-z7sCc-137" style="edgeStyle=orthogonalEdgeStyle;rounded=0;orthogonalLoop=1;jettySize=auto;html=1;entryX=0;entryY=0.5;entryDx=0;entryDy=0;entryPerimeter=0;exitX=0.5;exitY=1;exitDx=0;exitDy=0;exitPerimeter=0;" edge="1" parent="m1pKZ-GwWlCqEN-z7sCc-59" source="m1pKZ-GwWlCqEN-z7sCc-99" target="m1pKZ-GwWlCqEN-z7sCc-136">
          <mxGeometry relative="1" as="geometry" />
        </mxCell>
        <mxCell id="m1pKZ-GwWlCqEN-z7sCc-138" value="Расчёт выполнен" style="text;html=1;align=center;verticalAlign=middle;whiteSpace=wrap;rounded=0;" vertex="1" parent="m1pKZ-GwWlCqEN-z7sCc-59">
          <mxGeometry x="670" y="130" width="100" height="40" as="geometry" />
        </mxCell>
        <mxCell id="m1pKZ-GwWlCqEN-z7sCc-139" value="" style="dashed=1;dashPattern=8 4;endArrow=blockThin;endFill=0;startArrow=oval;startFill=0;endSize=6;startSize=4;html=1;rounded=0;exitX=0.5;exitY=0;exitDx=0;exitDy=0;exitPerimeter=0;" edge="1" parent="m1pKZ-GwWlCqEN-z7sCc-59">
          <mxGeometry width="160" relative="1" as="geometry">
            <mxPoint x="979.4099999999999" y="120" as="sourcePoint" />
            <mxPoint x="980" y="-40" as="targetPoint" />
          </mxGeometry>
        </mxCell>
        <mxCell id="m1pKZ-GwWlCqEN-z7sCc-141" style="edgeStyle=orthogonalEdgeStyle;rounded=0;orthogonalLoop=1;jettySize=auto;html=1;entryX=0;entryY=0.5;entryDx=0;entryDy=0;entryPerimeter=0;" edge="1" parent="m1pKZ-GwWlCqEN-z7sCc-59" source="m1pKZ-GwWlCqEN-z7sCc-104" target="m1pKZ-GwWlCqEN-z7sCc-103">
          <mxGeometry relative="1" as="geometry" />
        </mxCell>
        <mxCell id="m1pKZ-GwWlCqEN-z7sCc-72" value="" style="dashed=1;dashPattern=8 4;endArrow=blockThin;endFill=0;startArrow=oval;startFill=0;endSize=6;startSize=4;html=1;rounded=0;exitX=0.5;exitY=1;exitDx=0;exitDy=0;exitPerimeter=0;entryX=0.5;entryY=0;entryDx=0;entryDy=0;entryPerimeter=0;" edge="1" parent="1" source="m1pKZ-GwWlCqEN-z7sCc-61" target="m1pKZ-GwWlCqEN-z7sCc-77">
          <mxGeometry width="160" relative="1" as="geometry">
            <mxPoint x="1800" y="490" as="sourcePoint" />
            <mxPoint x="1960" y="490" as="targetPoint" />
            <Array as="points">
              <mxPoint x="1810" y="690" />
              <mxPoint x="1675" y="690" />
            </Array>
          </mxGeometry>
        </mxCell>
        <mxCell id="m1pKZ-GwWlCqEN-z7sCc-73" value="" style="dashed=1;dashPattern=8 4;endArrow=blockThin;endFill=0;startArrow=oval;startFill=0;endSize=6;startSize=4;html=1;rounded=0;entryX=0.5;entryY=0;entryDx=0;entryDy=0;entryPerimeter=0;" edge="1" parent="1" target="m1pKZ-GwWlCqEN-z7sCc-60">
          <mxGeometry width="160" relative="1" as="geometry">
            <mxPoint x="1665" y="320" as="sourcePoint" />
            <mxPoint x="1810" y="280" as="targetPoint" />
          </mxGeometry>
        </mxCell>
        <mxCell id="m1pKZ-GwWlCqEN-z7sCc-74" value="Агенство по защите кредитов" style="swimlane;html=1;childLayout=stackLayout;resizeParent=1;resizeParentMax=0;horizontal=0;startSize=20;horizontalStack=0;whiteSpace=wrap;" vertex="1" parent="1">
          <mxGeometry x="1590" y="730" width="1680" height="510" as="geometry" />
        </mxCell>
        <mxCell id="m1pKZ-GwWlCqEN-z7sCc-75" value="Уровень 1" style="swimlane;html=1;startSize=20;horizontal=0;" vertex="1" parent="m1pKZ-GwWlCqEN-z7sCc-74">
          <mxGeometry x="20" width="1660" height="320" as="geometry" />
        </mxCell>
        <mxCell id="m1pKZ-GwWlCqEN-z7sCc-76" style="edgeStyle=orthogonalEdgeStyle;rounded=0;orthogonalLoop=1;jettySize=auto;html=1;" edge="1" parent="m1pKZ-GwWlCqEN-z7sCc-75" source="m1pKZ-GwWlCqEN-z7sCc-77" target="m1pKZ-GwWlCqEN-z7sCc-78">
          <mxGeometry relative="1" as="geometry" />
        </mxCell>
        <mxCell id="m1pKZ-GwWlCqEN-z7sCc-77" value="" style="points=[[0.145,0.145,0],[0.5,0,0],[0.855,0.145,0],[1,0.5,0],[0.855,0.855,0],[0.5,1,0],[0.145,0.855,0],[0,0.5,0]];shape=mxgraph.bpmn.event;html=1;verticalLabelPosition=bottom;labelBackgroundColor=#ffffff;verticalAlign=top;align=center;perimeter=ellipsePerimeter;outlineConnect=0;aspect=fixed;outline=standard;symbol=message;" vertex="1" parent="m1pKZ-GwWlCqEN-z7sCc-75">
          <mxGeometry x="40" y="70" width="50" height="50" as="geometry" />
        </mxCell>
        <mxCell id="m1pKZ-GwWlCqEN-z7sCc-78" value="Выполнить быструю проверку" style="points=[[0.25,0,0],[0.5,0,0],[0.75,0,0],[1,0.25,0],[1,0.5,0],[1,0.75,0],[0.75,1,0],[0.5,1,0],[0.25,1,0],[0,0.75,0],[0,0.5,0],[0,0.25,0]];shape=mxgraph.bpmn.task;whiteSpace=wrap;rectStyle=rounded;size=10;html=1;container=1;expand=0;collapsible=0;taskMarker=abstract;" vertex="1" parent="m1pKZ-GwWlCqEN-z7sCc-75">
          <mxGeometry x="135" y="55" width="120" height="80" as="geometry" />
        </mxCell>
        <mxCell id="m1pKZ-GwWlCqEN-z7sCc-79" value="" style="points=[[0.25,0.25,0],[0.5,0,0],[0.75,0.25,0],[1,0.5,0],[0.75,0.75,0],[0.5,1,0],[0.25,0.75,0],[0,0.5,0]];shape=mxgraph.bpmn.gateway2;html=1;verticalLabelPosition=bottom;labelBackgroundColor=#ffffff;verticalAlign=top;align=center;perimeter=rhombusPerimeter;outlineConnect=0;outline=none;symbol=none;gwType=exclusive;" vertex="1" parent="m1pKZ-GwWlCqEN-z7sCc-75">
          <mxGeometry x="365" y="70" width="50" height="50" as="geometry" />
        </mxCell>
        <mxCell id="m1pKZ-GwWlCqEN-z7sCc-80" style="edgeStyle=orthogonalEdgeStyle;rounded=0;orthogonalLoop=1;jettySize=auto;html=1;entryX=0;entryY=0.5;entryDx=0;entryDy=0;entryPerimeter=0;" edge="1" parent="m1pKZ-GwWlCqEN-z7sCc-75" source="m1pKZ-GwWlCqEN-z7sCc-78" target="m1pKZ-GwWlCqEN-z7sCc-79">
          <mxGeometry relative="1" as="geometry" />
        </mxCell>
        <mxCell id="m1pKZ-GwWlCqEN-z7sCc-81" value="Результат?" style="text;html=1;align=center;verticalAlign=middle;whiteSpace=wrap;rounded=0;" vertex="1" parent="m1pKZ-GwWlCqEN-z7sCc-75">
          <mxGeometry x="350" y="40" width="80" height="40" as="geometry" />
        </mxCell>
        <mxCell id="m1pKZ-GwWlCqEN-z7sCc-83" value="Результат получен" style="text;html=1;align=center;verticalAlign=middle;whiteSpace=wrap;rounded=0;" vertex="1" parent="m1pKZ-GwWlCqEN-z7sCc-75">
          <mxGeometry x="630" y="55" width="80" height="40" as="geometry" />
        </mxCell>
        <mxCell id="m1pKZ-GwWlCqEN-z7sCc-85" value="" style="points=[[0.25,0.25,0],[0.5,0,0],[0.75,0.25,0],[1,0.5,0],[0.75,0.75,0],[0.5,1,0],[0.25,0.75,0],[0,0.5,0]];shape=mxgraph.bpmn.gateway2;html=1;verticalLabelPosition=bottom;labelBackgroundColor=#ffffff;verticalAlign=top;align=center;perimeter=rhombusPerimeter;outlineConnect=0;outline=none;symbol=none;gwType=exclusive;" vertex="1" parent="m1pKZ-GwWlCqEN-z7sCc-75">
          <mxGeometry x="790" y="70" width="50" height="50" as="geometry" />
        </mxCell>
        <mxCell id="m1pKZ-GwWlCqEN-z7sCc-87" value="Получен запрос на проверку" style="text;html=1;align=center;verticalAlign=middle;whiteSpace=wrap;rounded=0;" vertex="1" parent="m1pKZ-GwWlCqEN-z7sCc-75">
          <mxGeometry x="25" y="130" width="80" height="40" as="geometry" />
        </mxCell>
        <mxCell id="m1pKZ-GwWlCqEN-z7sCc-91" value="Требуется подсчёт второго уровня" style="text;html=1;align=center;verticalAlign=middle;whiteSpace=wrap;rounded=0;" vertex="1" parent="m1pKZ-GwWlCqEN-z7sCc-75">
          <mxGeometry x="335" y="200" width="110" height="40" as="geometry" />
        </mxCell>
        <mxCell id="m1pKZ-GwWlCqEN-z7sCc-92" value="Направить запрос на 2 уровень" style="points=[[0.25,0,0],[0.5,0,0],[0.75,0,0],[1,0.25,0],[1,0.5,0],[1,0.75,0],[0.75,1,0],[0.5,1,0],[0.25,1,0],[0,0.75,0],[0,0.5,0],[0,0.25,0]];shape=mxgraph.bpmn.task;whiteSpace=wrap;rectStyle=rounded;size=10;html=1;container=1;expand=0;collapsible=0;taskMarker=abstract;" vertex="1" parent="m1pKZ-GwWlCqEN-z7sCc-75">
          <mxGeometry x="640" y="160" width="120" height="80" as="geometry" />
        </mxCell>
        <mxCell id="m1pKZ-GwWlCqEN-z7sCc-106" value="Отправить ответ о задержке" style="points=[[0.25,0,0],[0.5,0,0],[0.75,0,0],[1,0.25,0],[1,0.5,0],[1,0.75,0],[0.75,1,0],[0.5,1,0],[0.25,1,0],[0,0.75,0],[0,0.5,0],[0,0.25,0]];shape=mxgraph.bpmn.task;whiteSpace=wrap;rectStyle=rounded;size=10;html=1;container=1;expand=0;collapsible=0;taskMarker=abstract;" vertex="1" parent="m1pKZ-GwWlCqEN-z7sCc-75">
          <mxGeometry x="450" y="160" width="120" height="80" as="geometry" />
        </mxCell>
        <mxCell id="m1pKZ-GwWlCqEN-z7sCc-109" style="edgeStyle=orthogonalEdgeStyle;rounded=0;orthogonalLoop=1;jettySize=auto;html=1;entryX=0;entryY=0.5;entryDx=0;entryDy=0;entryPerimeter=0;exitX=0.5;exitY=1;exitDx=0;exitDy=0;exitPerimeter=0;" edge="1" parent="m1pKZ-GwWlCqEN-z7sCc-75" source="m1pKZ-GwWlCqEN-z7sCc-79" target="m1pKZ-GwWlCqEN-z7sCc-106">
          <mxGeometry relative="1" as="geometry" />
        </mxCell>
        <mxCell id="m1pKZ-GwWlCqEN-z7sCc-105" value="Отправить результат на сервер банка" style="points=[[0.25,0,0],[0.5,0,0],[0.75,0,0],[1,0.25,0],[1,0.5,0],[1,0.75,0],[0.75,1,0],[0.5,1,0],[0.25,1,0],[0,0.75,0],[0,0.5,0],[0,0.25,0]];shape=mxgraph.bpmn.task;whiteSpace=wrap;rectStyle=rounded;size=10;html=1;container=1;expand=0;collapsible=0;taskMarker=abstract;" vertex="1" parent="m1pKZ-GwWlCqEN-z7sCc-75">
          <mxGeometry x="900" y="55" width="120" height="80" as="geometry" />
        </mxCell>
        <mxCell id="m1pKZ-GwWlCqEN-z7sCc-113" style="edgeStyle=orthogonalEdgeStyle;rounded=0;orthogonalLoop=1;jettySize=auto;html=1;entryX=0;entryY=0.5;entryDx=0;entryDy=0;entryPerimeter=0;" edge="1" parent="m1pKZ-GwWlCqEN-z7sCc-75" source="m1pKZ-GwWlCqEN-z7sCc-79" target="m1pKZ-GwWlCqEN-z7sCc-85">
          <mxGeometry relative="1" as="geometry" />
        </mxCell>
        <mxCell id="m1pKZ-GwWlCqEN-z7sCc-115" style="edgeStyle=orthogonalEdgeStyle;rounded=0;orthogonalLoop=1;jettySize=auto;html=1;entryX=0;entryY=0.5;entryDx=0;entryDy=0;entryPerimeter=0;" edge="1" parent="m1pKZ-GwWlCqEN-z7sCc-75" source="m1pKZ-GwWlCqEN-z7sCc-106" target="m1pKZ-GwWlCqEN-z7sCc-92">
          <mxGeometry relative="1" as="geometry" />
        </mxCell>
        <mxCell id="m1pKZ-GwWlCqEN-z7sCc-116" style="edgeStyle=orthogonalEdgeStyle;rounded=0;orthogonalLoop=1;jettySize=auto;html=1;entryX=0;entryY=0.5;entryDx=0;entryDy=0;entryPerimeter=0;" edge="1" parent="m1pKZ-GwWlCqEN-z7sCc-75" source="m1pKZ-GwWlCqEN-z7sCc-85" target="m1pKZ-GwWlCqEN-z7sCc-105">
          <mxGeometry relative="1" as="geometry" />
        </mxCell>
        <mxCell id="m1pKZ-GwWlCqEN-z7sCc-143" value="" style="points=[[0.145,0.145,0],[0.5,0,0],[0.855,0.145,0],[1,0.5,0],[0.855,0.855,0],[0.5,1,0],[0.145,0.855,0],[0,0.5,0]];shape=mxgraph.bpmn.event;html=1;verticalLabelPosition=bottom;labelBackgroundColor=#ffffff;verticalAlign=top;align=center;perimeter=ellipsePerimeter;outlineConnect=0;aspect=fixed;outline=end;symbol=terminate2;" vertex="1" parent="m1pKZ-GwWlCqEN-z7sCc-75">
          <mxGeometry x="1100" y="70" width="50" height="50" as="geometry" />
        </mxCell>
        <mxCell id="m1pKZ-GwWlCqEN-z7sCc-144" style="edgeStyle=orthogonalEdgeStyle;rounded=0;orthogonalLoop=1;jettySize=auto;html=1;entryX=0;entryY=0.5;entryDx=0;entryDy=0;entryPerimeter=0;" edge="1" parent="m1pKZ-GwWlCqEN-z7sCc-75" source="m1pKZ-GwWlCqEN-z7sCc-105" target="m1pKZ-GwWlCqEN-z7sCc-143">
          <mxGeometry relative="1" as="geometry" />
        </mxCell>
        <mxCell id="m1pKZ-GwWlCqEN-z7sCc-114" style="edgeStyle=orthogonalEdgeStyle;rounded=0;orthogonalLoop=1;jettySize=auto;html=1;entryX=0.5;entryY=0;entryDx=0;entryDy=0;entryPerimeter=0;" edge="1" parent="m1pKZ-GwWlCqEN-z7sCc-74" source="m1pKZ-GwWlCqEN-z7sCc-92" target="m1pKZ-GwWlCqEN-z7sCc-123">
          <mxGeometry relative="1" as="geometry">
            <mxPoint x="75" y="490" as="targetPoint" />
            <Array as="points">
              <mxPoint x="720" y="280" />
              <mxPoint x="98" y="280" />
            </Array>
          </mxGeometry>
        </mxCell>
        <mxCell id="m1pKZ-GwWlCqEN-z7sCc-94" value="Уровень 2" style="swimlane;html=1;startSize=20;horizontal=0;" vertex="1" parent="m1pKZ-GwWlCqEN-z7sCc-74">
          <mxGeometry x="20" y="320" width="1660" height="190" as="geometry" />
        </mxCell>
        <mxCell id="m1pKZ-GwWlCqEN-z7sCc-123" value="" style="points=[[0.145,0.145,0],[0.5,0,0],[0.855,0.145,0],[1,0.5,0],[0.855,0.855,0],[0.5,1,0],[0.145,0.855,0],[0,0.5,0]];shape=mxgraph.bpmn.event;html=1;verticalLabelPosition=bottom;labelBackgroundColor=#ffffff;verticalAlign=top;align=center;perimeter=ellipsePerimeter;outlineConnect=0;aspect=fixed;outline=catching;symbol=message;" vertex="1" parent="m1pKZ-GwWlCqEN-z7sCc-94">
          <mxGeometry x="52.5" y="70" width="50" height="50" as="geometry" />
        </mxCell>
        <mxCell id="m1pKZ-GwWlCqEN-z7sCc-124" value="Получен запрос на расчёт второго уровня" style="text;html=1;align=center;verticalAlign=middle;whiteSpace=wrap;rounded=0;" vertex="1" parent="m1pKZ-GwWlCqEN-z7sCc-94">
          <mxGeometry x="15" y="120" width="125" height="40" as="geometry" />
        </mxCell>
        <mxCell id="m1pKZ-GwWlCqEN-z7sCc-125" value="Подсчитать баллы второго уровня" style="points=[[0.25,0,0],[0.5,0,0],[0.75,0,0],[1,0.25,0],[1,0.5,0],[1,0.75,0],[0.75,1,0],[0.5,1,0],[0.25,1,0],[0,0.75,0],[0,0.5,0],[0,0.25,0]];shape=mxgraph.bpmn.task;whiteSpace=wrap;rectStyle=rounded;size=10;html=1;container=1;expand=0;collapsible=0;taskMarker=abstract;" vertex="1" parent="m1pKZ-GwWlCqEN-z7sCc-94">
          <mxGeometry x="170" y="55" width="120" height="80" as="geometry" />
        </mxCell>
        <mxCell id="m1pKZ-GwWlCqEN-z7sCc-126" style="edgeStyle=orthogonalEdgeStyle;rounded=0;orthogonalLoop=1;jettySize=auto;html=1;entryX=0;entryY=0.5;entryDx=0;entryDy=0;entryPerimeter=0;" edge="1" parent="m1pKZ-GwWlCqEN-z7sCc-94" source="m1pKZ-GwWlCqEN-z7sCc-123" target="m1pKZ-GwWlCqEN-z7sCc-125">
          <mxGeometry relative="1" as="geometry" />
        </mxCell>
        <mxCell id="m1pKZ-GwWlCqEN-z7sCc-128" value="" style="points=[[0.145,0.145,0],[0.5,0,0],[0.855,0.145,0],[1,0.5,0],[0.855,0.855,0],[0.5,1,0],[0.145,0.855,0],[0,0.5,0]];shape=mxgraph.bpmn.event;html=1;verticalLabelPosition=bottom;labelBackgroundColor=#ffffff;verticalAlign=top;align=center;perimeter=ellipsePerimeter;outlineConnect=0;aspect=fixed;outline=catching;symbol=timer;" vertex="1" parent="m1pKZ-GwWlCqEN-z7sCc-94">
          <mxGeometry x="370" y="70" width="50" height="50" as="geometry" />
        </mxCell>
        <mxCell id="m1pKZ-GwWlCqEN-z7sCc-129" value="Ожидание n минут" style="text;html=1;align=center;verticalAlign=middle;whiteSpace=wrap;rounded=0;" vertex="1" parent="m1pKZ-GwWlCqEN-z7sCc-94">
          <mxGeometry x="340" y="120" width="110" height="40" as="geometry" />
        </mxCell>
        <mxCell id="m1pKZ-GwWlCqEN-z7sCc-130" style="edgeStyle=orthogonalEdgeStyle;rounded=0;orthogonalLoop=1;jettySize=auto;html=1;entryX=0;entryY=0.5;entryDx=0;entryDy=0;entryPerimeter=0;" edge="1" parent="m1pKZ-GwWlCqEN-z7sCc-94" source="m1pKZ-GwWlCqEN-z7sCc-125" target="m1pKZ-GwWlCqEN-z7sCc-128">
          <mxGeometry relative="1" as="geometry" />
        </mxCell>
        <mxCell id="m1pKZ-GwWlCqEN-z7sCc-132" style="edgeStyle=orthogonalEdgeStyle;rounded=0;orthogonalLoop=1;jettySize=auto;html=1;entryX=0.5;entryY=1;entryDx=0;entryDy=0;entryPerimeter=0;" edge="1" parent="m1pKZ-GwWlCqEN-z7sCc-74" source="m1pKZ-GwWlCqEN-z7sCc-128" target="m1pKZ-GwWlCqEN-z7sCc-85">
          <mxGeometry relative="1" as="geometry" />
        </mxCell>
        <mxCell id="m1pKZ-GwWlCqEN-z7sCc-117" value="" style="dashed=1;dashPattern=8 4;endArrow=blockThin;endFill=0;startArrow=oval;startFill=0;endSize=6;startSize=4;html=1;rounded=0;entryX=0.5;entryY=1;entryDx=0;entryDy=0;entryPerimeter=0;exitX=0.5;exitY=0;exitDx=0;exitDy=0;exitPerimeter=0;" edge="1" parent="1" source="m1pKZ-GwWlCqEN-z7sCc-106" target="m1pKZ-GwWlCqEN-z7sCc-65">
          <mxGeometry width="160" relative="1" as="geometry">
            <mxPoint x="2190" y="520" as="sourcePoint" />
            <mxPoint x="2190" y="600" as="targetPoint" />
          </mxGeometry>
        </mxCell>
        <mxCell id="m1pKZ-GwWlCqEN-z7sCc-121" value="" style="dashed=1;dashPattern=8 4;endArrow=blockThin;endFill=0;startArrow=oval;startFill=0;endSize=6;startSize=4;html=1;rounded=0;entryX=0.5;entryY=1;entryDx=0;entryDy=0;entryPerimeter=0;exitX=0.5;exitY=0;exitDx=0;exitDy=0;exitPerimeter=0;" edge="1" parent="1" source="m1pKZ-GwWlCqEN-z7sCc-105" target="m1pKZ-GwWlCqEN-z7sCc-65">
          <mxGeometry width="160" relative="1" as="geometry">
            <mxPoint x="2230" y="905" as="sourcePoint" />
            <mxPoint x="2230" y="465" as="targetPoint" />
            <Array as="points">
              <mxPoint x="2570" y="610" />
              <mxPoint x="2120" y="610" />
            </Array>
          </mxGeometry>
        </mxCell>
      </root>
    </mxGraphModel>
  </diagram>
</mxfile>
